# xmcd
#
# Track frame offsets: 
#        150
#        15087
#        35485
#        53906
#        83237
#        101901
#        118086
#        135391
#        158529
#
# Disc length: 2328 seconds
#
# Revision: 0
# Processed by: cddbd v1.5.2PL0 Copyright (c) Steve Scherf et al.
# Submitted via: ExactAudioCopy v0.90b4
#
DISCID=65091609
DTITLE=Batdorf and Rodney - Batdorf and Rodney
DYEAR=1972
DGENRE=Rock
TTITLE0=Poor Man's Dream
TTITLE1=Oh, Can You Tell Me
TTITLE2=Between The Ages
TTITLE3=Home Again
TTITLE4=By Today
TTITLE5=Happy Town
TTITLE6=All I Need [Dedicated to Dalton Trumbo]
TTITLE7=Under Five
TTITLE8=Let Me Live The Life
EXTD=
EXTT0=
EXTT1=
EXTT2=
EXTT3=
EXTT4=
EXTT5=
EXTT6=
EXTT7=
EXTT8=
PLAYORDER=
